# Blender v2.79 (sub 0) OBJ File: 'aan.blend'
# www.blender.org
mtllib aan.mtl
o Cube_Cube.001
v 0.209284 0.423072 0.449499
v 0.322334 0.423072 0.449499
v 0.209284 1.553581 0.449499
v 0.322334 1.553581 0.449499
v 0.209283 0.988326 -0.681010
v 0.322334 0.988326 -0.681010
v 0.209283 0.988326 -0.681010
v 0.322334 0.988326 -0.681010
v -0.250000 1.000000 -1.041220
v 0.250000 1.000000 -1.041220
v -0.250000 0.804910 -1.022005
v 0.250000 0.804910 -1.022005
v -0.250000 0.617317 -0.965100
v 0.250000 0.617317 -0.965100
v -0.250000 0.444430 -0.872690
v 0.250000 0.444430 -0.872690
v -0.250000 0.292893 -0.748327
v 0.250000 0.292893 -0.748327
v -0.250000 0.168530 -0.596790
v 0.250000 0.168530 -0.596790
v -0.250000 0.076120 -0.423904
v 0.250000 0.076120 -0.423904
v -0.250000 0.019215 -0.236310
v 0.250000 0.019215 -0.236310
v -0.250000 -0.000000 -0.041220
v 0.250000 -0.000000 -0.041220
v -0.250000 0.019215 0.153870
v 0.250000 0.019215 0.153870
v -0.250000 0.076120 0.341463
v 0.250000 0.076120 0.341463
v -0.250000 0.168530 0.514350
v 0.250000 0.168530 0.514350
v -0.250000 0.292893 0.665887
v 0.250000 0.292893 0.665887
v -0.250000 0.444430 0.790250
v 0.250000 0.444430 0.790250
v -0.250000 0.617317 0.882659
v 0.250000 0.617317 0.882659
v -0.250000 0.804910 0.939565
v 0.250000 0.804910 0.939565
v -0.250000 1.000000 0.958780
v 0.250000 1.000000 0.958780
v -0.250000 1.195091 0.939565
v 0.250000 1.195091 0.939565
v -0.250000 1.382684 0.882659
v 0.250000 1.382684 0.882659
v -0.250000 1.555571 0.790249
v 0.250000 1.555571 0.790249
v -0.250000 1.707107 0.665886
v 0.250000 1.707107 0.665886
v -0.250000 1.831470 0.514350
v 0.250000 1.831470 0.514350
v -0.250000 1.923880 0.341463
v 0.250000 1.923880 0.341463
v -0.250000 1.980786 0.153869
v 0.250000 1.980786 0.153869
v -0.250000 2.000000 -0.041221
v 0.250000 2.000000 -0.041221
v -0.250000 1.980785 -0.236311
v 0.250000 1.980785 -0.236311
v -0.250000 1.923879 -0.423905
v 0.250000 1.923879 -0.423905
v -0.250000 1.831469 -0.596791
v 0.250000 1.831469 -0.596791
v -0.250000 1.707106 -0.748328
v 0.250000 1.707106 -0.748328
v -0.250000 1.555569 -0.872690
v 0.250000 1.555569 -0.872690
v -0.250000 1.382682 -0.965100
v 0.250000 1.382682 -0.965100
v -0.250000 1.195089 -1.022006
v 0.250000 1.195089 -1.022006
vn 0.0000 0.0000 1.0000
vn 0.0000 0.8944 -0.4472
vn 0.0000 -0.8944 -0.4472
vn -1.0000 0.0000 0.0000
vn 1.0000 -0.0000 -0.0000
vn 0.0000 -0.0980 -0.9952
vn 0.0000 -0.2903 -0.9569
vn 0.0000 -0.4714 -0.8819
vn 0.0000 -0.6344 -0.7730
vn 0.0000 -0.7730 -0.6344
vn -0.0000 -0.8819 -0.4714
vn -0.0000 -0.9569 -0.2903
vn -0.0000 -0.9952 -0.0980
vn 0.0000 -0.9952 0.0980
vn 0.0000 -0.9569 0.2903
vn 0.0000 -0.8819 0.4714
vn 0.0000 -0.7730 0.6344
vn 0.0000 -0.6344 0.7730
vn 0.0000 -0.4714 0.8819
vn 0.0000 -0.2903 0.9569
vn 0.0000 -0.0980 0.9952
vn 0.0000 0.0980 0.9952
vn 0.0000 0.2903 0.9569
vn 0.0000 0.4714 0.8819
vn 0.0000 0.6344 0.7730
vn 0.0000 0.7730 0.6344
vn 0.0000 0.8819 0.4714
vn 0.0000 0.9569 0.2903
vn 0.0000 0.9952 0.0980
vn 0.0000 0.9952 -0.0980
vn 0.0000 0.9569 -0.2903
vn 0.0000 0.8819 -0.4714
vn -0.0000 0.7730 -0.6344
vn 0.0000 0.6344 -0.7730
vn 0.0000 0.4714 -0.8819
vn 0.0000 0.2903 -0.9569
vn -0.0000 0.0980 -0.9952
usemtl Material.001
s off
f 1//1 2//1 4//1 3//1
f 3//2 4//2 8//2 7//2
f 7//1 8//1 6//1 5//1
f 5//3 6//3 2//3 1//3
f 3//4 7//4 5//4 1//4
f 8//5 4//5 2//5 6//5
usemtl Material.002
f 9//6 10//6 12//6 11//6
f 11//7 12//7 14//7 13//7
f 13//8 14//8 16//8 15//8
f 15//9 16//9 18//9 17//9
f 17//10 18//10 20//10 19//10
f 19//11 20//11 22//11 21//11
f 21//12 22//12 24//12 23//12
f 23//13 24//13 26//13 25//13
f 25//14 26//14 28//14 27//14
f 27//15 28//15 30//15 29//15
f 29//16 30//16 32//16 31//16
f 31//17 32//17 34//17 33//17
f 33//18 34//18 36//18 35//18
f 35//19 36//19 38//19 37//19
f 37//20 38//20 40//20 39//20
f 39//21 40//21 42//21 41//21
f 41//22 42//22 44//22 43//22
f 43//23 44//23 46//23 45//23
f 45//24 46//24 48//24 47//24
f 47//25 48//25 50//25 49//25
f 49//26 50//26 52//26 51//26
f 51//27 52//27 54//27 53//27
f 53//28 54//28 56//28 55//28
f 55//29 56//29 58//29 57//29
f 57//30 58//30 60//30 59//30
f 59//31 60//31 62//31 61//31
f 61//32 62//32 64//32 63//32
f 63//33 64//33 66//33 65//33
f 65//34 66//34 68//34 67//34
f 67//35 68//35 70//35 69//35
f 12//5 10//5 72//5 70//5 68//5 66//5 64//5 62//5 60//5 58//5 56//5 54//5 52//5 50//5 48//5 46//5 44//5 42//5 40//5 38//5 36//5 34//5 32//5 30//5 28//5 26//5 24//5 22//5 20//5 18//5 16//5 14//5
f 69//36 70//36 72//36 71//36
f 71//37 72//37 10//37 9//37
f 9//4 11//4 13//4 15//4 17//4 19//4 21//4 23//4 25//4 27//4 29//4 31//4 33//4 35//4 37//4 39//4 41//4 43//4 45//4 47//4 49//4 51//4 53//4 55//4 57//4 59//4 61//4 63//4 65//4 67//4 69//4 71//4
