# This file uses centimeters as units for non-parametric coordinates.

mtllib muren.mtl
g default
v -7.048620 0.257713 1.697241
v -4.004816 0.257713 1.697241
v -7.048620 0.257713 1.863287
v -4.004816 0.257713 1.863287
v -7.063740 1.265016 1.863287
v -4.004816 1.257713 1.863287
v -7.063740 1.265016 1.697241
v -4.004816 1.257713 1.697241
v -6.610904 2.735801 1.863287
v -4.443045 2.728497 1.863287
v -4.443045 2.728497 1.697241
v -6.610904 2.735801 1.697241
v -5.825380 3.235798 1.863287
v -5.194817 3.228494 1.863287
v -5.194817 3.228494 1.697241
v -5.825380 3.235798 1.697241
v -5.542976 3.522239 1.863287
v -5.532193 3.514935 1.863287
v -5.532193 3.514935 1.697241
v -5.542976 3.522239 1.697241
v -3.804816 1.286875 1.697241
v -3.804816 0.257713 1.697241
v -3.804816 1.286875 1.863287
v -3.804816 0.257713 1.863287
v -4.272034 2.854955 1.697241
v -4.272035 2.854955 1.863287
v -5.074303 3.388537 1.697241
v -5.074303 3.388537 1.863287
v -5.402750 3.667396 1.697241
v -5.402750 3.667396 1.863287
v -7.264193 1.293640 1.697241
v -7.248597 0.254711 1.697241
v -7.248597 0.254711 1.863287
v -7.264193 1.293640 1.863287
v -6.780390 2.864999 1.863287
v -6.780390 2.864999 1.697241
v -5.951890 3.392350 1.863287
v -5.951890 3.392351 1.697241
v -5.685397 3.662653 1.863287
v -5.685397 3.662653 1.697241
v -4.004818 1.257713 -2.302759
v -4.004816 0.257713 -2.302759
v -3.804816 1.286875 -2.302759
v -3.804816 0.257713 -2.302759
v -4.443045 2.728497 -2.302759
v -4.272036 2.854955 -2.302759
v -5.194816 3.228494 -2.302759
v -5.074304 3.388537 -2.302759
v -5.532192 3.514935 -2.302759
v -5.402748 3.667396 -2.302759
v -7.063734 1.265016 -2.302759
v -7.048615 0.257713 -2.302759
v -7.248592 0.254711 -2.302759
v -7.264195 1.293640 -2.302759
v -6.610906 2.735801 -2.302759
v -6.780390 2.864999 -2.302759
v -5.825380 3.235798 -2.302759
v -5.951891 3.392351 -2.302759
v -5.542977 3.522239 -2.302759
v -5.685398 3.662653 -2.302759
vt 0.645833 0.291667
vt 0.625000 0.000000
vt 0.625000 0.250000
vt 0.375000 0.500000
vt 0.625000 0.500000
vt 0.500000 0.750000
vt 0.500000 0.000000
vt 0.312500 0.375000
vt 0.500000 0.562500
vt 0.625000 0.625000
vt 0.375000 0.500000
vt 0.375000 0.750000
vt 0.625000 0.000000
vt 0.875000 0.000000
vt 0.875000 0.250000
vt 0.625000 0.250000
vt 0.125000 0.000000
vt 0.375000 0.000000
vt 0.375000 0.250000
vt 0.125000 0.250000
vt 0.625000 0.750000
vt 0.625000 0.750000
vt 0.625000 0.500000
vt 0.625000 0.500000
vt 0.375000 0.500000
vt 0.375000 0.500000
vt 0.375000 0.750000
vt 0.375000 0.750000
vt 0.625000 0.750000
vt 0.625000 0.500000
vt 0.375000 0.500000
vt 0.375000 0.750000
vt 0.625000 0.750000
vt 0.625000 0.500000
vt 0.375000 0.500000
vt 0.375000 0.750000
vt 0.625000 0.000000
vt 0.875000 0.000000
vt 0.875000 0.000000
vt 0.625000 0.000000
vt 0.125000 0.000000
vt 0.375000 0.000000
vt 0.375000 0.000000
vt 0.125000 0.000000
vt 0.375000 0.250000
vt 0.125000 0.250000
vt 0.125000 0.250000
vt 0.375000 0.250000
vt 0.625000 0.500000
vt 0.625000 0.500000
vt 0.625000 0.500000
vt 0.625000 0.500000
vt 0.625000 0.750000
vt 0.625000 0.750000
vt 0.625000 0.750000
vt 0.625000 0.750000
vt 0.625000 0.750000
vt 0.625000 0.750000
vt 0.625000 0.500000
vt 0.625000 0.500000
vt 0.625000 0.500000
vt 0.625000 0.500000
vt 0.375000 0.750000
vt 0.375000 0.750000
vt 0.375000 0.750000
vt 0.375000 0.750000
vn 0.694101 0.719878 -0.000000
vn 0.560820 0.827938 -0.000000
vn 0.560820 0.827938 -0.000000
vn 0.701736 0.712437 -0.000000
vn 1.000000 -0.000000 -0.000000
vn 0.984202 0.177048 -0.000000
vn 0.984202 0.177048 0.000002
vn 1.000000 -0.000000 -0.000001
vn -0.984291 0.176551 -0.000000
vn -0.999887 -0.015013 -0.000000
vn -0.999887 -0.015009 -0.000001
vn -0.984291 0.176552 0.000000
vn 0.855964 0.517036 -0.000000
vn 0.855964 0.517036 0.000003
vn -0.847888 0.530176 0.000001
vn -0.847888 0.530176 0.000000
vn 0.583513 0.812104 -0.000000
vn 0.553791 0.832656 0.000002
vn -0.536965 0.843604 0.000001
vn -0.588797 0.808281 0.000000
vn 0.647217 0.762306 -0.000000
vn 0.647219 0.762305 0.000000
vn 0.647217 0.762306 -0.000000
vn -0.712107 0.702071 0.000000
vn -0.712107 0.702071 0.000000
vn -0.712107 0.702071 0.000000
vn 0.000000 -0.000000 -1.000000
vn 0.000000 -0.000000 -1.000000
vn 0.000000 -0.000000 -1.000000
vn 0.000000 -0.000000 -1.000000
vn 0.000000 -0.000000 1.000000
vn 0.000000 0.000000 1.000000
vn 0.000000 0.000000 1.000000
vn 0.000000 -0.000000 1.000000
vn 0.000000 -1.000000 0.000000
vn 0.000000 -1.000000 0.000000
vn 0.000000 -1.000000 0.000000
vn 0.000000 -1.000000 0.000000
vn 0.000000 -0.000000 -1.000000
vn 0.000000 -0.000000 -1.000000
vn 0.000000 -0.000000 1.000000
vn 0.000000 -0.000000 1.000000
vn 0.000000 -0.000000 -1.000000
vn 0.000000 -0.000001 -1.000000
vn 0.000000 -0.000000 1.000000
vn 0.000000 -0.000000 1.000000
vn 0.000000 -0.000001 -1.000000
vn 0.000000 -0.000001 -1.000000
vn -0.762305 0.647218 -0.000000
vn -0.762305 0.647218 -0.000000
vn -0.762305 0.647218 -0.000000
vn -0.762305 0.647218 -0.000000
vn 0.000000 -0.000000 1.000000
vn 0.000000 -0.000000 1.000000
vn 0.000000 -0.000000 -1.000000
vn 0.000000 -0.000000 -1.000000
vn 0.000000 -0.000000 -1.000000
vn 0.000000 -0.000000 -1.000000
vn 0.015009 -0.999887 0.000000
vn 0.015009 -0.999887 0.000000
vn 0.015009 -0.999887 0.000000
vn 0.015009 -0.999887 0.000000
vn 0.000000 0.000000 1.000000
vn 0.000000 0.000000 1.000000
vn 0.000000 0.000000 1.000000
vn 0.000000 0.000000 1.000000
vn 0.000000 0.000000 1.000000
vn 0.000000 0.000000 1.000000
vn 0.000000 -0.000000 -1.000000
vn 0.000000 -0.000001 -1.000000
vn 0.000000 0.000000 1.000000
vn 0.000000 0.000000 1.000000
vn 0.000000 -0.000001 -1.000000
vn 0.000000 -0.000000 -1.000000
vn 0.000000 0.000000 1.000000
vn 0.000000 0.000000 1.000000
vn 0.702072 0.712106 -0.000000
vn 0.702071 0.712107 -0.000000
vn 0.000000 -0.000000 -1.000000
vn 0.000000 -0.000000 -1.000000
vn -1.000000 -0.000001 0.000000
vn -0.984633 -0.174639 0.000000
vn -0.984633 -0.174639 0.000000
vn -1.000000 -0.000001 0.000000
vn 1.000000 0.000000 0.000000
vn 0.984202 0.177048 -0.000000
vn 0.000000 -1.000000 0.000000
vn 0.000000 -1.000000 0.000000
vn -0.958364 -0.285550 0.000000
vn -0.958364 -0.285550 0.000000
vn 0.958364 0.285550 -0.000000
vn -0.553792 -0.832655 -0.000000
vn -0.585408 -0.810739 -0.000000
vn -0.585408 -0.810739 -0.000000
vn -0.553792 -0.832655 -0.000000
vn 0.553791 0.832655 -0.000000
vn 0.583513 0.812104 -0.000000
vn -0.647217 -0.762306 -0.000000
vn -0.647217 -0.762306 -0.000000
vn -0.762305 0.647218 -0.000000
vn -0.762305 0.647218 -0.000000
vn 0.647219 0.762304 0.000000
vn 0.984756 -0.173940 0.000001
vn 0.999887 0.015008 0.000001
vn 0.999887 0.015008 0.000001
vn 0.984756 -0.173940 0.000001
vn 0.015009 -0.999887 0.000000
vn 0.015009 -0.999887 0.000000
vn -0.984291 0.176551 -0.000000
vn -0.999887 -0.015013 -0.000000
vn 0.955727 -0.294254 0.000000
vn 0.955727 -0.294254 0.000000
vn -0.955726 0.294257 0.000000
vn 0.592975 -0.805221 -0.000000
vn 0.536965 -0.843605 -0.000000
vn 0.536965 -0.843605 -0.000000
vn 0.592975 -0.805221 -0.000000
vn -0.588797 0.808281 0.000000
vn -0.536966 0.843604 0.000000
vn 0.712107 -0.702071 -0.000000
vn 0.712107 -0.702071 -0.000000
vn -0.712107 0.702071 0.000000
vn 0.702072 0.712106 -0.000000
vn 0.702072 0.712106 -0.000000
vn 0.999887 0.015009 -0.000000
vn 0.999887 0.015009 -0.000000
vn 0.999887 0.015009 -0.000000
vn 0.999887 0.015009 -0.000000
vn 0.955727 -0.294256 0.000000
vn 0.955727 -0.294256 0.000000
vn 0.955727 -0.294256 0.000000
vn 0.955727 -0.294256 0.000000
vn 0.536965 -0.843604 0.000000
vn 0.536965 -0.843604 0.000000
vn 0.536965 -0.843604 0.000000
vn 0.536965 -0.843604 0.000000
vn 0.712107 -0.702071 0.000000
vn 0.712107 -0.702071 0.000000
vn 0.712107 -0.702071 0.000000
vn 0.712107 -0.702071 0.000000
vn -0.647217 -0.762305 0.000000
vn -0.647217 -0.762305 0.000000
vn -0.647217 -0.762305 0.000000
vn -0.647217 -0.762305 0.000000
vn -0.553791 -0.832655 0.000000
vn -0.553791 -0.832655 0.000000
vn -0.553791 -0.832655 0.000000
vn -0.553791 -0.832655 0.000000
vn -0.958364 -0.285550 0.000000
vn -0.958364 -0.285550 0.000000
vn -0.958364 -0.285550 0.000000
vn -0.958364 -0.285550 0.000000
vn -1.000000 0.000000 0.000000
vn -1.000000 0.000000 0.000000
vn -1.000000 0.000000 0.000000
vn -1.000000 0.000000 0.000000
s 1
g pasted__pCube1 group
usemtl pasted__lambert3SG1
f 17/11/1 18/9/2 19/1/3 20/12/4
s 2
f 22/13/5 21/14/6 23/15/7 24/16/8
s 3
f 31/17/9 32/18/10 33/19/11 34/20/12
s 2
f 23/24/7 21/21/6 25/22/13 26/23/14
s 3
f 31/28/9 34/25/12 35/26/15 36/27/16
s 2
f 26/23/14 25/22/13 27/29/17 28/30/18
s 3
f 36/27/16 35/26/15 37/31/19 38/32/20
s 2
f 28/30/21 27/29/17 29/33/22 30/34/23
s 3
f 38/32/20 37/31/24 39/35/25 40/36/26
s 6
f 42/37/27 41/38/28 43/39/29 44/40/30
s 7
f 6/1/31 4/3/32 24/16/33 23/15/34
s 8
f 4/3/35 2/2/36 22/13/37 24/16/38
s 6
f 41/41/28 45/42/39 46/43/40 43/44/29
s 7
f 10/1/41 6/1/31 23/19/34 26/18/42
s 6
f 45/45/39 47/46/43 48/47/44 46/48/40
s 7
f 14/6/45 10/1/41 26/22/42 28/21/46
s 6
f 47/49/43 49/50/47 50/51/48 48/52/44
s 9
f 19/4/49 18/8/50 30/26/51 29/25/52
s 7
f 18/1/53 14/6/45 28/28/46 30/27/54
s 10
f 51/53/55 52/54/56 53/55/57 54/56/58
s 11
f 1/10/59 3/8/60 33/23/61 32/30/62
s 12
f 3/8/63 5/9/64 34/31/65 33/26/66
f 5/9/64 9/1/67 35/27/68 34/32/65
s 10
f 55/54/69 51/57/55 54/58/58 56/55/70
s 12
f 9/1/67 13/9/71 37/34/72 35/33/68
s 10
f 57/59/73 55/60/69 56/61/70 58/62/74
s 12
f 13/9/71 17/11/75 39/35/76 37/31/72
s 13
f 17/11/1 20/12/4 40/36/77 39/35/78
s 10
f 59/63/79 57/64/73 58/65/74 60/66/80
s 14
f 2/2/81 8/7/82 41/38/83 42/37/84
s 2
f 21/14/6 22/13/5 44/40/85 43/39/86
s 8
f 22/13/37 2/2/36 42/37/87 44/40/88
s 14
f 8/7/82 11/1/89 45/42/90 41/41/83
s 2
f 25/18/13 21/17/6 43/44/86 46/43/91
s 15
f 11/1/92 15/8/93 47/46/94 45/45/95
s 2
f 27/20/17 25/19/13 46/48/96 48/47/97
s 15
f 15/8/93 19/5/98 49/50/99 47/49/94
s 9
f 19/5/49 29/24/52 50/51/100 49/50/101
s 2
f 29/24/22 27/23/17 48/52/97 50/51/102
s 16
f 7/1/103 1/10/104 52/54/105 51/53/106
s 11
f 1/10/59 32/29/62 53/55/107 52/54/108
s 3
f 32/29/10 31/22/9 54/56/109 53/55/110
s 16
f 12/10/111 7/1/103 51/57/106 55/54/112
s 3
f 31/33/9 36/29/16 56/55/113 54/58/109
s 17
f 16/9/114 12/10/115 55/60/116 57/59/117
s 3
f 36/30/16 38/34/20 58/62/118 56/61/119
s 17
f 20/12/120 16/9/114 57/64/117 59/63/121
s 3
f 38/32/20 40/36/26 60/66/122 58/65/118
s 13
f 40/36/77 20/12/4 59/63/123 60/66/124
s off
f 5/9/125 3/8/126 1/10/127 7/1/128
f 9/1/129 5/9/130 7/1/131 12/10/132
f 13/9/133 9/1/134 12/10/135 16/9/136
s 1
f 17/11/137 13/9/138 16/9/139 20/12/140
s off
f 14/6/141 18/1/142 19/5/143 15/8/144
f 10/1/145 14/6/146 15/8/147 11/1/148
f 6/1/149 10/1/150 11/1/151 8/7/152
f 4/3/153 6/1/154 8/7/155 2/2/156
