# Blender v2.79 (sub 0) OBJ File: 'persbank.blend'
# www.blender.org
mtllib persbank1.mtl
o Cube.003
v 1.150000 0.250000 -2.150000
v 1.150000 0.250000 -1.850000
v 0.850000 0.250000 -1.850000
v 0.850000 0.250000 -2.150000
v 1.150000 2.750000 -2.150000
v 1.150000 2.750000 -1.850000
v 0.850000 2.750000 -1.850000
v 0.850000 2.750000 -2.150000
v -1.250000 2.700000 2.150000
v -1.250000 2.900000 2.150000
v -1.250000 2.700000 -2.150000
v -1.250000 2.900000 -2.150000
v 1.250000 2.700000 2.150000
v 1.250000 2.900000 2.150000
v 1.250000 2.700000 -2.150000
v 1.250000 2.900000 -2.150000
v -0.850000 0.250000 -2.150000
v -0.850000 0.250000 -1.850000
v -1.150000 0.250000 -1.850000
v -1.150000 0.250000 -2.150000
v -0.850000 2.750000 -2.150000
v -0.850000 2.750000 -1.850000
v -1.150000 2.750000 -1.850000
v -1.150000 2.750000 -2.150000
v 1.150000 0.250000 1.850000
v 1.150000 0.250000 2.150000
v 0.850000 0.250000 2.150000
v 0.850000 0.250000 1.850000
v 1.150000 2.750000 1.850000
v 1.150000 2.750000 2.150000
v 0.850000 2.750000 2.150000
v 0.850000 2.750000 1.850000
v -0.850000 0.250000 1.850000
v -0.850000 0.250000 2.150000
v -1.150000 0.250000 2.150000
v -1.150000 0.250000 1.850000
v -0.850000 2.750000 1.850000
v -0.850000 2.750000 2.150000
v -1.150000 2.750000 2.150000
v -1.150000 2.750000 1.850000
v -0.100000 5.670000 -2.106035
v -0.100000 5.670000 2.093965
v -0.100000 5.870000 -2.106035
v -0.100000 5.870000 2.093965
v 0.100000 5.670000 -2.106035
v 0.100000 5.670000 2.093965
v 0.100000 5.870000 -2.106035
v 0.100000 5.870000 2.093965
v -0.100000 2.821210 2.100000
v -0.100000 5.821210 2.100000
v -0.100000 2.821210 1.900000
v -0.100000 5.821210 1.900000
v 0.100000 2.821210 2.100000
v 0.100000 5.821210 2.100000
v 0.100000 2.821210 1.900000
v 0.100000 5.821210 1.900000
v -0.100000 2.821210 -1.900000
v -0.100000 5.821210 -1.900000
v -0.100000 2.821210 -2.100000
v -0.100000 5.821210 -2.100000
v 0.100000 2.821210 -1.900000
v 0.100000 5.821210 -1.900000
v 0.100000 2.821210 -2.100000
v 0.100000 5.821210 -2.100000
v -1.342578 2.379156 0.400000
v -1.342578 2.879156 0.400000
v -1.342578 2.379156 -0.400000
v -1.342578 2.879156 -0.400000
v -1.242579 2.379156 0.400000
v -1.242579 2.879156 0.400000
v -1.242579 2.379156 -0.400000
v -1.242579 2.879156 -0.400000
vn 0.0000 -1.0000 0.0000
vn 0.0000 1.0000 -0.0000
vn 1.0000 0.0000 0.0000
vn -0.0000 -0.0000 1.0000
vn -1.0000 -0.0000 -0.0000
vn 0.0000 0.0000 -1.0000
usemtl Material
s off
f 1//1 2//1 3//1 4//1
f 5//2 8//2 7//2 6//2
f 1//3 5//3 6//3 2//3
f 2//4 6//4 7//4 3//4
f 3//5 7//5 8//5 4//5
f 5//6 1//6 4//6 8//6
f 9//5 10//5 12//5 11//5
f 11//6 12//6 16//6 15//6
f 15//3 16//3 14//3 13//3
f 13//4 14//4 10//4 9//4
f 11//1 15//1 13//1 9//1
f 16//2 12//2 10//2 14//2
f 17//1 18//1 19//1 20//1
f 21//2 24//2 23//2 22//2
f 17//3 21//3 22//3 18//3
f 18//4 22//4 23//4 19//4
f 19//5 23//5 24//5 20//5
f 21//6 17//6 20//6 24//6
f 25//1 26//1 27//1 28//1
f 29//2 32//2 31//2 30//2
f 25//3 29//3 30//3 26//3
f 26//4 30//4 31//4 27//4
f 27//5 31//5 32//5 28//5
f 29//6 25//6 28//6 32//6
f 33//1 34//1 35//1 36//1
f 37//2 40//2 39//2 38//2
f 33//3 37//3 38//3 34//3
f 34//4 38//4 39//4 35//4
f 35//5 39//5 40//5 36//5
f 37//6 33//6 36//6 40//6
f 41//5 42//5 44//5 43//5
f 43//2 44//2 48//2 47//2
f 47//3 48//3 46//3 45//3
f 45//1 46//1 42//1 41//1
f 43//6 47//6 45//6 41//6
f 48//4 44//4 42//4 46//4
f 49//5 50//5 52//5 51//5
f 51//6 52//6 56//6 55//6
f 55//3 56//3 54//3 53//3
f 53//4 54//4 50//4 49//4
f 51//1 55//1 53//1 49//1
f 56//2 52//2 50//2 54//2
f 57//5 58//5 60//5 59//5
f 59//6 60//6 64//6 63//6
f 63//3 64//3 62//3 61//3
f 61//4 62//4 58//4 57//4
f 59//1 63//1 61//1 57//1
f 64//2 60//2 58//2 62//2
usemtl Material.001
f 65//5 66//5 68//5 67//5
f 67//6 68//6 72//6 71//6
f 71//3 72//3 70//3 69//3
f 69//4 70//4 66//4 65//4
f 67//1 71//1 69//1 65//1
f 72//2 68//2 66//2 70//2
