# This file uses centimeters as units for non-parametric coordinates.

mtllib trap.mtl
g default
v -1.667035 0.886329 2.803242
v 1.667035 0.886329 2.803242
v -1.667035 1.057625 2.803242
v 1.667035 1.057625 2.803242
v -1.667035 1.057625 2.246132
v 1.667035 1.057625 2.246132
v -1.667035 0.886329 2.246132
v 1.667035 0.886329 2.246132
v -1.667035 0.886329 3.303242
v 1.667035 0.886329 3.303242
v 1.667035 1.057625 3.303242
v -1.667035 1.057625 3.303242
v -1.667035 1.257625 2.803242
v 1.667035 1.257625 2.803242
v -1.667035 1.257625 3.303242
v 1.667035 1.257625 3.303242
v -1.667035 1.057625 3.803242
v 1.667035 1.057625 3.803242
v 1.667035 1.257625 3.803242
v -1.667035 1.257625 3.803242
v -1.667035 1.457625 3.303242
v 1.667035 1.457625 3.303242
v -1.667035 1.457625 3.803242
v 1.667035 1.457625 3.803242
v -1.667035 1.257625 4.303242
v 1.667035 1.257625 4.303242
v 1.667035 1.457625 4.303242
v -1.667035 1.457625 4.303242
v -1.667035 1.657625 3.803242
v 1.667035 1.657625 3.803242
v -1.667035 1.657625 4.303242
v 1.667035 1.657625 4.303242
v -1.667035 1.457625 4.803242
v 1.667035 1.457625 4.803242
v 1.667035 1.657625 4.803242
v -1.667035 1.657625 4.803242
v -1.667035 1.857625 4.303242
v 1.667035 1.857625 4.303242
v -1.667035 1.857625 4.803242
v 1.667035 1.857625 4.803242
vt 0.375000 0.000000
vt 0.625000 0.000000
vt 0.375000 0.250000
vt 0.625000 0.250000
vt 0.375000 0.500000
vt 0.625000 0.500000
vt 0.375000 0.750000
vt 0.625000 0.750000
vt 0.375000 1.000000
vt 0.625000 1.000000
vt 0.875000 0.000000
vt 0.875000 0.250000
vt 0.125000 0.000000
vt 0.125000 0.250000
vt 0.375000 0.000000
vt 0.625000 0.000000
vt 0.625000 0.250000
vt 0.375000 0.250000
vt 0.625000 0.250000
vt 0.375000 0.250000
vt 0.375000 0.250000
vt 0.625000 0.250000
vt 0.375000 0.250000
vt 0.625000 0.250000
vt 0.625000 0.250000
vt 0.375000 0.250000
vt 0.625000 0.250000
vt 0.375000 0.250000
vt 0.375000 0.250000
vt 0.625000 0.250000
vt 0.375000 0.250000
vt 0.625000 0.250000
vt 0.625000 0.250000
vt 0.375000 0.250000
vt 0.625000 0.250000
vt 0.375000 0.250000
vt 0.375000 0.250000
vt 0.625000 0.250000
vt 0.375000 0.250000
vt 0.625000 0.250000
vt 0.625000 0.250000
vt 0.375000 0.250000
vt 0.625000 0.250000
vt 0.375000 0.250000
vt 0.375000 0.250000
vt 0.625000 0.250000
vn 0.000000 0.000000 1.000000
vn 0.000000 0.000000 1.000000
vn 0.000000 0.000000 1.000000
vn 0.000000 0.000000 1.000000
vn 0.000000 1.000000 0.000000
vn 0.000000 1.000000 0.000000
vn 0.000000 1.000000 0.000000
vn 0.000000 1.000000 0.000000
vn 0.000000 0.000000 -1.000000
vn 0.000000 0.000000 -1.000000
vn 0.000000 0.000000 -1.000000
vn 0.000000 0.000000 -1.000000
vn 0.000000 -1.000000 0.000000
vn 0.000000 -1.000000 0.000000
vn 0.000000 -1.000000 0.000000
vn 0.000000 -1.000000 0.000000
vn 1.000000 0.000000 0.000000
vn 1.000000 0.000000 0.000000
vn 1.000000 0.000000 0.000000
vn 1.000000 0.000000 0.000000
vn -1.000000 0.000000 0.000000
vn -1.000000 0.000000 0.000000
vn -1.000000 0.000000 0.000000
vn -1.000000 0.000000 0.000000
vn 0.000000 -1.000000 0.000000
vn 0.000000 -1.000000 0.000000
vn 1.000000 0.000000 0.000000
vn 1.000000 0.000000 0.000000
vn 0.000000 1.000000 0.000000
vn 0.000000 1.000000 0.000000
vn 0.000000 1.000000 0.000000
vn 0.000000 1.000000 0.000000
vn -1.000000 0.000000 0.000000
vn -1.000000 0.000000 0.000000
vn 0.000000 0.000000 -1.000000
vn 0.000000 0.000000 -1.000000
vn 0.000000 0.000000 -1.000000
vn 0.000000 0.000000 -1.000000
vn -1.000000 0.000000 0.000000
vn -1.000000 0.000000 0.000000
vn 0.000000 0.000000 1.000000
vn 0.000000 0.000000 1.000000
vn 0.000000 0.000000 1.000000
vn 0.000000 0.000000 1.000000
vn 1.000000 0.000000 0.000000
vn 1.000000 0.000000 0.000000
vn 0.000000 -1.000000 0.000000
vn 0.000000 -1.000000 0.000000
vn 0.000000 -1.000000 0.000000
vn 0.000000 -1.000000 0.000000
vn 1.000000 0.000000 0.000000
vn 1.000000 0.000000 0.000000
vn 0.000000 1.000000 0.000000
vn 0.000000 1.000000 0.000000
vn 0.000000 1.000000 0.000000
vn 0.000000 1.000000 0.000000
vn -1.000000 0.000000 0.000000
vn -1.000000 0.000000 0.000000
vn 0.000000 0.000000 -1.000000
vn 0.000000 0.000000 -1.000000
vn 0.000000 0.000000 -1.000000
vn 0.000000 0.000000 -1.000000
vn -1.000000 0.000000 0.000000
vn -1.000000 0.000000 0.000000
vn 0.000000 0.000000 1.000000
vn 0.000000 0.000000 1.000000
vn 0.000000 0.000000 1.000000
vn 0.000000 0.000000 1.000000
vn 1.000000 0.000000 0.000000
vn 1.000000 0.000000 0.000000
vn 0.000000 -1.000000 0.000000
vn 0.000000 -1.000000 0.000000
vn 0.000000 -1.000000 0.000000
vn 0.000000 -1.000000 0.000000
vn 1.000000 0.000000 0.000000
vn 1.000000 0.000000 0.000000
vn 0.000000 1.000000 0.000000
vn 0.000000 1.000000 0.000000
vn 0.000000 1.000000 0.000000
vn 0.000000 1.000000 0.000000
vn -1.000000 0.000000 0.000000
vn -1.000000 0.000000 0.000000
vn 0.000000 0.000000 -1.000000
vn 0.000000 0.000000 -1.000000
vn 0.000000 0.000000 -1.000000
vn 0.000000 0.000000 -1.000000
vn -1.000000 0.000000 0.000000
vn -1.000000 0.000000 0.000000
vn 0.000000 0.000000 1.000000
vn 0.000000 0.000000 1.000000
vn 0.000000 0.000000 1.000000
vn 0.000000 0.000000 1.000000
vn 1.000000 0.000000 0.000000
vn 1.000000 0.000000 0.000000
vn 0.000000 -1.000000 0.000000
vn 0.000000 -1.000000 0.000000
vn 0.000000 -1.000000 0.000000
vn 0.000000 -1.000000 0.000000
vn 1.000000 0.000000 0.000000
vn 1.000000 0.000000 0.000000
vn 0.000000 1.000000 0.000000
vn 0.000000 1.000000 0.000000
vn 0.000000 1.000000 0.000000
vn 0.000000 1.000000 0.000000
vn -1.000000 0.000000 0.000000
vn -1.000000 0.000000 0.000000
vn 0.000000 0.000000 -1.000000
vn 0.000000 0.000000 -1.000000
vn 0.000000 0.000000 -1.000000
vn 0.000000 0.000000 -1.000000
vn -1.000000 0.000000 0.000000
vn -1.000000 0.000000 0.000000
vn 0.000000 0.000000 1.000000
vn 0.000000 0.000000 1.000000
vn 1.000000 0.000000 0.000000
vn 1.000000 0.000000 0.000000
s off
g pasted__pCube1 Trap
usemtl lambert3SG
f 9/15/1 10/16/2 11/17/3 12/18/4
f 3/3/5 4/4/6 6/6/7 5/5/8
f 5/5/9 6/6/10 8/8/11 7/7/12
s 1
f 7/7/13 8/8/14 2/10/15 1/9/16
s 2
f 2/2/17 8/11/18 6/12/19 4/4/20
s 3
f 7/13/21 1/1/22 3/3/23 5/14/24
s 1
f 1/1/16 2/2/15 10/16/25 9/15/26
s 2
f 2/2/17 4/4/20 11/17/27 10/16/28
s off
f 14/19/29 13/20/30 15/21/31 16/22/32
s 3
f 3/3/23 1/1/22 9/15/33 12/18/34
s off
f 4/4/35 3/3/36 13/20/37 14/19/38
s 3
f 3/3/23 12/18/34 15/21/39 13/20/40
s off
f 17/23/41 18/24/42 19/25/43 20/26/44
s 2
f 11/17/27 4/4/20 14/19/45 16/22/46
s off
f 12/18/47 11/17/48 18/24/49 17/23/50
s 2
f 11/17/27 16/22/46 19/25/51 18/24/52
s off
f 22/27/53 21/28/54 23/29/55 24/30/56
s 3
f 15/21/39 12/18/34 17/23/57 20/26/58
s off
f 16/22/59 15/21/60 21/28/61 22/27/62
s 3
f 15/21/39 20/26/58 23/29/63 21/28/64
s off
f 25/31/65 26/32/66 27/33/67 28/34/68
s 2
f 19/25/51 16/22/46 22/27/69 24/30/70
s off
f 20/26/71 19/25/72 26/32/73 25/31/74
s 2
f 19/25/51 24/30/70 27/33/75 26/32/76
s off
f 30/35/77 29/36/78 31/37/79 32/38/80
s 3
f 23/29/63 20/26/58 25/31/81 28/34/82
s off
f 24/30/83 23/29/84 29/36/85 30/35/86
s 3
f 23/29/63 28/34/82 31/37/87 29/36/88
s 4
f 33/39/89 34/40/90 35/41/91 36/42/92
s 2
f 27/33/75 24/30/70 30/35/93 32/38/94
s off
f 28/34/95 27/33/96 34/40/97 33/39/98
s 2
f 27/33/75 32/38/94 35/41/99 34/40/100
s off
f 38/43/101 37/44/102 39/45/103 40/46/104
s 3
f 31/37/87 28/34/82 33/39/105 36/42/106
s off
f 32/38/107 31/37/108 37/44/109 38/43/110
s 3
f 31/37/87 36/42/106 39/45/111 37/44/112
s 4
f 36/42/92 35/41/91 40/46/113 39/45/114
s 2
f 35/41/99 32/38/94 38/43/115 40/46/116
g default
v -1.667035 -0.085648 0.278555
v 1.667035 -0.085648 0.278555
v -1.667035 0.085648 0.278555
v 1.667035 0.085648 0.278555
v -1.667035 0.085648 -0.278555
v 1.667035 0.085648 -0.278555
v -1.667035 -0.085648 -0.278555
v 1.667035 -0.085648 -0.278555
v -1.667035 -0.085648 0.778555
v 1.667035 -0.085648 0.778555
v 1.667035 0.085648 0.778555
v -1.667035 0.085648 0.778555
v -1.667035 0.285648 0.278555
v 1.667035 0.285648 0.278555
v -1.667035 0.285648 0.778555
v 1.667035 0.285648 0.778555
v -1.667035 0.085648 1.278555
v 1.667035 0.085648 1.278555
v 1.667035 0.285648 1.278555
v -1.667035 0.285648 1.278555
v -1.667035 0.485648 0.778555
v 1.667035 0.485648 0.778555
v -1.667035 0.485648 1.278555
v 1.667035 0.485648 1.278555
v -1.667035 0.285648 1.778555
v 1.667035 0.285648 1.778555
v 1.667035 0.485648 1.778555
v -1.667035 0.485648 1.778555
v -1.667035 0.685648 1.278555
v 1.667035 0.685648 1.278555
v -1.667035 0.685648 1.778555
v 1.667035 0.685648 1.778555
v -1.667035 0.485648 2.278555
v 1.667035 0.485648 2.278555
v 1.667035 0.685648 2.278555
v -1.667035 0.685648 2.278555
v -1.667035 0.885648 1.778555
v 1.667035 0.885648 1.778555
v -1.667035 0.885648 2.278555
v 1.667035 0.885648 2.278555
vt 0.375000 0.000000
vt 0.625000 0.000000
vt 0.375000 0.250000
vt 0.625000 0.250000
vt 0.375000 0.500000
vt 0.625000 0.500000
vt 0.375000 0.750000
vt 0.625000 0.750000
vt 0.375000 1.000000
vt 0.625000 1.000000
vt 0.875000 0.000000
vt 0.875000 0.250000
vt 0.125000 0.000000
vt 0.125000 0.250000
vt 0.375000 0.000000
vt 0.625000 0.000000
vt 0.625000 0.250000
vt 0.375000 0.250000
vt 0.625000 0.250000
vt 0.375000 0.250000
vt 0.375000 0.250000
vt 0.625000 0.250000
vt 0.375000 0.250000
vt 0.625000 0.250000
vt 0.625000 0.250000
vt 0.375000 0.250000
vt 0.625000 0.250000
vt 0.375000 0.250000
vt 0.375000 0.250000
vt 0.625000 0.250000
vt 0.375000 0.250000
vt 0.625000 0.250000
vt 0.625000 0.250000
vt 0.375000 0.250000
vt 0.625000 0.250000
vt 0.375000 0.250000
vt 0.375000 0.250000
vt 0.625000 0.250000
vt 0.375000 0.250000
vt 0.625000 0.250000
vt 0.625000 0.250000
vt 0.375000 0.250000
vt 0.625000 0.250000
vt 0.375000 0.250000
vt 0.375000 0.250000
vt 0.625000 0.250000
vn 0.000000 0.000000 1.000000
vn 0.000000 0.000000 1.000000
vn 0.000000 0.000000 1.000000
vn 0.000000 0.000000 1.000000
vn 0.000000 1.000000 0.000000
vn 0.000000 1.000000 0.000000
vn 0.000000 1.000000 0.000000
vn 0.000000 1.000000 0.000000
vn 0.000000 0.000000 -1.000000
vn 0.000000 0.000000 -1.000000
vn 0.000000 0.000000 -1.000000
vn 0.000000 0.000000 -1.000000
vn 0.000000 -1.000000 0.000000
vn 0.000000 -1.000000 0.000000
vn 0.000000 -1.000000 0.000000
vn 0.000000 -1.000000 0.000000
vn 1.000000 0.000000 0.000000
vn 1.000000 0.000000 0.000000
vn 1.000000 0.000000 0.000000
vn 1.000000 0.000000 0.000000
vn -1.000000 0.000000 0.000000
vn -1.000000 0.000000 0.000000
vn -1.000000 0.000000 0.000000
vn -1.000000 0.000000 0.000000
vn 0.000000 -1.000000 0.000000
vn 0.000000 -1.000000 0.000000
vn 1.000000 0.000000 0.000000
vn 1.000000 0.000000 0.000000
vn 0.000000 1.000000 0.000000
vn 0.000000 1.000000 0.000000
vn 0.000000 1.000000 0.000000
vn 0.000000 1.000000 0.000000
vn -1.000000 0.000000 0.000000
vn -1.000000 0.000000 0.000000
vn 0.000000 0.000000 -1.000000
vn 0.000000 0.000000 -1.000000
vn 0.000000 0.000000 -1.000000
vn 0.000000 0.000000 -1.000000
vn -1.000000 0.000000 0.000000
vn -1.000000 0.000000 0.000000
vn 0.000000 0.000000 1.000000
vn 0.000000 0.000000 1.000000
vn 0.000000 0.000000 1.000000
vn 0.000000 0.000000 1.000000
vn 1.000000 0.000000 0.000000
vn 1.000000 0.000000 0.000000
vn 0.000000 -1.000000 0.000000
vn 0.000000 -1.000000 0.000000
vn 0.000000 -1.000000 0.000000
vn 0.000000 -1.000000 0.000000
vn 1.000000 0.000000 0.000000
vn 1.000000 0.000000 0.000000
vn 0.000000 1.000000 0.000000
vn 0.000000 1.000000 0.000000
vn 0.000000 1.000000 0.000000
vn 0.000000 1.000000 0.000000
vn -1.000000 0.000000 0.000000
vn -1.000000 0.000000 0.000000
vn 0.000000 0.000000 -1.000000
vn 0.000000 0.000000 -1.000000
vn 0.000000 0.000000 -1.000000
vn 0.000000 0.000000 -1.000000
vn -1.000000 0.000000 0.000000
vn -1.000000 0.000000 0.000000
vn 0.000000 0.000000 1.000000
vn 0.000000 0.000000 1.000000
vn 0.000000 0.000000 1.000000
vn 0.000000 0.000000 1.000000
vn 1.000000 0.000000 0.000000
vn 1.000000 0.000000 0.000000
vn 0.000000 -1.000000 0.000000
vn 0.000000 -1.000000 0.000000
vn 0.000000 -1.000000 0.000000
vn 0.000000 -1.000000 0.000000
vn 1.000000 0.000000 0.000000
vn 1.000000 0.000000 0.000000
vn 0.000000 1.000000 0.000000
vn 0.000000 1.000000 0.000000
vn 0.000000 1.000000 0.000000
vn 0.000000 1.000000 0.000000
vn -1.000000 0.000000 0.000000
vn -1.000000 0.000000 0.000000
vn 0.000000 0.000000 -1.000000
vn 0.000000 0.000000 -1.000000
vn 0.000000 0.000000 -1.000000
vn 0.000000 0.000000 -1.000000
vn -1.000000 0.000000 0.000000
vn -1.000000 0.000000 0.000000
vn 0.000000 0.000000 1.000000
vn 0.000000 0.000000 1.000000
vn 0.000000 0.000000 1.000000
vn 0.000000 0.000000 1.000000
vn 1.000000 0.000000 0.000000
vn 1.000000 0.000000 0.000000
vn 0.000000 -1.000000 0.000000
vn 0.000000 -1.000000 0.000000
vn 0.000000 -1.000000 0.000000
vn 0.000000 -1.000000 0.000000
vn 1.000000 0.000000 0.000000
vn 1.000000 0.000000 0.000000
vn 0.000000 1.000000 0.000000
vn 0.000000 1.000000 0.000000
vn 0.000000 1.000000 0.000000
vn 0.000000 1.000000 0.000000
vn -1.000000 0.000000 0.000000
vn -1.000000 0.000000 0.000000
vn 0.000000 0.000000 -1.000000
vn 0.000000 0.000000 -1.000000
vn 0.000000 0.000000 -1.000000
vn 0.000000 0.000000 -1.000000
vn -1.000000 0.000000 0.000000
vn -1.000000 0.000000 0.000000
vn 0.000000 0.000000 1.000000
vn 0.000000 0.000000 1.000000
vn 1.000000 0.000000 0.000000
vn 1.000000 0.000000 0.000000
s off
g Trap pCube1
usemtl lambert3SG
f 49/61/117 50/62/118 51/63/119 52/64/120
f 43/49/121 44/50/122 46/52/123 45/51/124
f 45/51/125 46/52/126 48/54/127 47/53/128
s 1
f 47/53/129 48/54/130 42/56/131 41/55/132
s 2
f 42/48/133 48/57/134 46/58/135 44/50/136
s 3
f 47/59/137 41/47/138 43/49/139 45/60/140
s 1
f 41/47/132 42/48/131 50/62/141 49/61/142
s 2
f 42/48/133 44/50/136 51/63/143 50/62/144
s off
f 54/65/145 53/66/146 55/67/147 56/68/148
s 3
f 43/49/139 41/47/138 49/61/149 52/64/150
s off
f 44/50/151 43/49/152 53/66/153 54/65/154
s 3
f 43/49/139 52/64/150 55/67/155 53/66/156
s off
f 57/69/157 58/70/158 59/71/159 60/72/160
s 2
f 51/63/143 44/50/136 54/65/161 56/68/162
s off
f 52/64/163 51/63/164 58/70/165 57/69/166
s 2
f 51/63/143 56/68/162 59/71/167 58/70/168
s off
f 62/73/169 61/74/170 63/75/171 64/76/172
s 3
f 55/67/155 52/64/150 57/69/173 60/72/174
s off
f 56/68/175 55/67/176 61/74/177 62/73/178
s 3
f 55/67/155 60/72/174 63/75/179 61/74/180
s off
f 65/77/181 66/78/182 67/79/183 68/80/184
s 2
f 59/71/167 56/68/162 62/73/185 64/76/186
s off
f 60/72/187 59/71/188 66/78/189 65/77/190
s 2
f 59/71/167 64/76/186 67/79/191 66/78/192
s off
f 70/81/193 69/82/194 71/83/195 72/84/196
s 3
f 63/75/179 60/72/174 65/77/197 68/80/198
s off
f 64/76/199 63/75/200 69/82/201 70/81/202
s 3
f 63/75/179 68/80/198 71/83/203 69/82/204
s 4
f 73/85/205 74/86/206 75/87/207 76/88/208
s 2
f 67/79/191 64/76/186 70/81/209 72/84/210
s off
f 68/80/211 67/79/212 74/86/213 73/85/214
s 2
f 67/79/191 72/84/210 75/87/215 74/86/216
s off
f 78/89/217 77/90/218 79/91/219 80/92/220
s 3
f 71/83/203 68/80/198 73/85/221 76/88/222
s off
f 72/84/223 71/83/224 77/90/225 78/89/226
s 3
f 71/83/203 76/88/222 79/91/227 77/90/228
s 4
f 76/88/208 75/87/207 80/92/229 79/91/230
s 2
f 75/87/215 72/84/210 78/89/231 80/92/232
